<svg width="17" height="10" viewBox="0 0 17 10" fill="none" xmlns="http://www.w3.org/2000/svg">
<path fill-rule="evenodd" clip-rule="evenodd" d="M0.00317383 5.16911C0.00317381 4.73196 0.357558 4.37757 0.794712 4.37757L14.0821 4.37757L11.8653 2.31915C11.545 2.02168 11.5264 1.52085 11.8239 1.20051C12.1214 0.880165 12.6222 0.861616 12.9425 1.15908L16.6364 4.58908C16.7977 4.73885 16.8893 4.94901 16.8893 5.16911C16.8893 5.38921 16.7977 5.59938 16.6364 5.74915L12.9425 9.17915C12.6222 9.47661 12.1214 9.45806 11.8239 9.13772C11.5264 8.81737 11.545 8.31654 11.8653 8.01908L14.0821 5.96065L0.794712 5.96065C0.357558 5.96065 0.00317385 5.60627 0.00317383 5.16911Z" fill="black"/>
</svg>
