<svg width="21" height="21" viewBox="0 0 21 21" fill="none" xmlns="http://www.w3.org/2000/svg">
<path d="M10.0627 0.445801C4.53274 0.445801 0.0627441 4.9158 0.0627441 10.4458C0.0627441 15.9758 4.53274 20.4458 10.0627 20.4458C15.5927 20.4458 20.0627 15.9758 20.0627 10.4458C20.0627 4.9158 15.5927 0.445801 10.0627 0.445801ZM14.3627 14.7458C13.9727 15.1358 13.3427 15.1358 12.9527 14.7458L10.0627 11.8558L7.17274 14.7458C6.78274 15.1358 6.15274 15.1358 5.76274 14.7458C5.37274 14.3558 5.37274 13.7258 5.76274 13.3358L8.65274 10.4458L5.76274 7.5558C5.37274 7.1658 5.37274 6.5358 5.76274 6.1458C6.15274 5.7558 6.78274 5.7558 7.17274 6.1458L10.0627 9.0358L12.9527 6.1458C13.3427 5.7558 13.9727 5.7558 14.3627 6.1458C14.7527 6.5358 14.7527 7.1658 14.3627 7.5558L11.4727 10.4458L14.3627 13.3358C14.7427 13.7158 14.7427 14.3558 14.3627 14.7458Z" fill="#FC5A5A"/>
</svg>
