<svg width="40" height="40" viewBox="0 0 40 40" fill="none" xmlns="http://www.w3.org/2000/svg">
<rect width="40" height="40" rx="20" fill="#CE4AEF"/>
<path d="M11.2598 20C11.2598 15.1734 15.1734 11.2598 20 11.2598C24.8266 11.2598 28.7402 15.1734 28.7402 20C28.7402 24.8266 24.8266 28.7402 20 28.7402C15.1734 28.7402 11.2598 24.8266 11.2598 20ZM12.7246 20C12.7246 24.0171 15.9829 27.2754 20 27.2754C24.0171 27.2754 27.2754 24.0171 27.2754 20C27.2754 15.9829 24.0171 12.7246 20 12.7246C15.9829 12.7246 12.7246 15.9829 12.7246 20Z" fill="white" stroke="white" stroke-width="0.0195312"/>
<path d="M22.1797 16.1855C21.5937 15.6719 20.8203 15.3906 20 15.3906C19.1797 15.3906 18.4062 15.6738 17.8203 16.1855C17.2109 16.7188 16.875 17.4355 16.875 18.2031V18.3516C16.875 18.4375 16.9453 18.5078 17.0312 18.5078H17.9688C18.0547 18.5078 18.125 18.4375 18.125 18.3516V18.2031C18.125 17.3418 18.9668 16.6406 20 16.6406C21.0332 16.6406 21.875 17.3418 21.875 18.2031C21.875 18.8105 21.4453 19.3672 20.7793 19.623C20.3652 19.7813 20.0137 20.0586 19.7617 20.4219C19.5059 20.793 19.373 21.2383 19.373 21.6895V22.1094C19.373 22.1953 19.4434 22.2656 19.5293 22.2656H20.4668C20.5527 22.2656 20.623 22.1953 20.623 22.1094V21.666C20.6241 21.4764 20.6822 21.2915 20.7898 21.1354C20.8975 20.9793 21.0497 20.8593 21.2266 20.791C22.3789 20.3477 23.123 19.332 23.123 18.2031C23.125 17.4355 22.7891 16.7188 22.1797 16.1855ZM19.2188 24.2969C19.2188 24.5041 19.3011 24.7028 19.4476 24.8493C19.5941 24.9958 19.7928 25.0781 20 25.0781C20.2072 25.0781 20.4059 24.9958 20.5524 24.8493C20.6989 24.7028 20.7812 24.5041 20.7812 24.2969C20.7812 24.0897 20.6989 23.891 20.5524 23.7444C20.4059 23.5979 20.2072 23.5156 20 23.5156C19.7928 23.5156 19.5941 23.5979 19.4476 23.7444C19.3011 23.891 19.2188 24.0897 19.2188 24.2969Z" fill="white"/>
</svg>
