<svg width="44" height="45" viewBox="0 0 44 45" fill="none" xmlns="http://www.w3.org/2000/svg">
<rect width="43.8775" height="44.585" rx="21.9387" fill="#45C646" fill-opacity="0.1"/>
<path d="M29.045 18.2925L29.835 16.5425L31.585 15.7525C31.975 15.5725 31.975 15.0225 31.585 14.8425L29.835 14.0525L29.045 12.2925C28.865 11.9025 28.315 11.9025 28.135 12.2925L27.345 14.0425L25.585 14.8325C25.195 15.0125 25.195 15.5625 25.585 15.7425L27.335 16.5325L28.125 18.2925C28.305 18.6825 28.865 18.6825 29.045 18.2925ZM21.085 19.7925L19.495 16.2925C19.145 15.5125 18.025 15.5125 17.675 16.2925L16.085 19.7925L12.585 21.3825C11.805 21.7425 11.805 22.8525 12.585 23.2025L16.085 24.7925L17.675 28.2925C18.035 29.0725 19.145 29.0725 19.495 28.2925L21.085 24.7925L24.585 23.2025C25.365 22.8425 25.365 21.7325 24.585 21.3825L21.085 19.7925ZM28.125 26.2925L27.335 28.0425L25.585 28.8325C25.195 29.0125 25.195 29.5625 25.585 29.7425L27.335 30.5325L28.125 32.2925C28.305 32.6825 28.855 32.6825 29.035 32.2925L29.825 30.5425L31.585 29.7525C31.975 29.5725 31.975 29.0225 31.585 28.8425L29.835 28.0525L29.045 26.2925C28.865 25.9025 28.305 25.9025 28.125 26.2925Z" fill="#45C646"/>
</svg>
