<svg width="24" height="25" viewBox="0 0 24 25" fill="none" xmlns="http://www.w3.org/2000/svg">
<path d="M9 3.82001C5.82436 3.82001 3.25 6.39437 3.25 9.57001V16.6769C3.25 17.0911 3.58579 17.4269 4 17.4269C4.41421 17.4269 4.75 17.0911 4.75 16.6769V9.57001C4.75 7.2228 6.65279 5.32001 9 5.32001H16.0129C16.4271 5.32001 16.7629 4.98422 16.7629 4.57001C16.7629 4.15579 16.4271 3.82001 16.0129 3.82001H9Z" fill="black"/>
<path fill-rule="evenodd" clip-rule="evenodd" d="M18.4026 7.36327C15.1616 7.00104 11.8384 7.00104 8.59748 7.36327C7.6742 7.46646 6.93227 8.19305 6.82344 9.12348C6.43906 12.41 6.43906 15.73 6.82344 19.0165C6.93227 19.947 7.6742 20.6736 8.59748 20.7767C11.8384 21.139 15.1616 21.139 18.4026 20.7767C19.3258 20.6736 20.0678 19.947 20.1766 19.0165C20.561 15.73 20.561 12.41 20.1766 9.12348C20.0678 8.19305 19.3258 7.46646 18.4026 7.36327ZM8.76409 8.85398C11.8943 8.50414 15.1057 8.50414 18.2359 8.85398C18.4733 8.88051 18.6599 9.06822 18.6867 9.29774C19.0576 12.4684 19.0576 15.6716 18.6867 18.8423C18.6599 19.0718 18.4733 19.2595 18.2359 19.286C15.1057 19.6359 11.8943 19.6359 8.76409 19.286C8.52674 19.2595 8.34013 19.0718 8.31329 18.8423C7.94245 15.6716 7.94245 12.4684 8.31329 9.29774C8.34013 9.06822 8.52674 8.88051 8.76409 8.85398Z" fill="black"/>
</svg>
