<svg width="105" height="106" viewBox="0 0 105 106" fill="none" xmlns="http://www.w3.org/2000/svg">
<g filter="url(#filter0_i_321_6331)">
<g clip-path="url(#clip0_321_6331)">
<path d="M0.196777 52.7112C0.196777 23.825 23.6137 0.40802 52.5 0.40802C81.3863 0.40802 104.803 23.825 104.803 52.7112C104.803 81.5975 81.3863 105.014 52.5 105.014C23.6137 105.014 0.196777 81.5975 0.196777 52.7112Z" fill="#CE4AEF"/>
<path d="M25.0408 33.359C25.0408 28.2328 25.0408 25.6697 26.0384 23.7118C26.9159 21.9895 28.3162 20.5893 30.0384 19.7117C31.9964 18.7141 34.5595 18.7141 39.6857 18.7141H65.968C71.0942 18.7141 73.6573 18.7141 75.6153 19.7117C77.3375 20.5893 78.7378 21.9895 79.6153 23.7118C80.6129 25.6697 80.6129 28.2328 80.6129 33.359V118.482C80.6129 123.609 80.6129 126.172 79.6153 128.13C78.7378 129.852 77.3375 131.252 75.6153 132.13C73.6573 133.127 71.0942 133.127 65.968 133.127H39.6857C34.5595 133.127 31.9964 133.127 30.0384 132.13C28.3162 131.252 26.9159 129.852 26.0384 128.13C25.0408 126.172 25.0408 123.609 25.0408 118.482V33.359Z" fill="#601FBE"/>
<path d="M27.656 31.7898C27.656 28.1282 27.656 26.2975 28.3686 24.8989C28.9954 23.6687 29.9956 22.6686 31.2258 22.0418C32.6243 21.3292 34.4551 21.3292 38.1166 21.3292H67.5372C71.1988 21.3292 73.0295 21.3292 74.4281 22.0418C75.6583 22.6686 76.6584 23.6687 77.2853 24.8989C77.9978 26.2975 77.9978 28.1282 77.9978 31.7898V120.051C77.9978 123.713 77.9978 125.544 77.2853 126.942C76.6584 128.173 75.6583 129.173 74.4281 129.8C73.0295 130.512 71.1988 130.512 67.5372 130.512H38.1166C34.4551 130.512 32.6243 130.512 31.2258 129.8C29.9956 129.173 28.9954 128.173 28.3686 126.942C27.656 125.544 27.656 123.713 27.656 120.051V31.7898Z" fill="white"/>
<rect x="44.6545" y="22.6415" width="16.9985" height="5.23664" rx="2.61832" fill="#601FBE"/>
<g filter="url(#filter1_d_321_6331)">
<path d="M40.7317 59.2491C40.7317 52.7496 46.0005 47.4808 52.4999 47.4808C58.9993 47.4808 64.2681 52.7496 64.2681 59.2491C64.2681 65.7485 58.9993 71.0173 52.4999 71.0173C46.0005 71.0173 40.7317 65.7485 40.7317 59.2491Z" fill="#CE4AEF"/>
<path fill-rule="evenodd" clip-rule="evenodd" d="M52.5 60.2465C50.3681 60.2465 48.4983 61.5007 48.4983 62.9298C48.4983 64.7686 51.5106 64.7686 52.5 64.7686C53.4894 64.7686 56.5012 64.7686 56.5012 62.9178C56.5012 61.4947 54.6314 60.2465 52.5 60.2465Z" fill="white"/>
<path fill-rule="evenodd" clip-rule="evenodd" d="M52.4791 59.0542H52.496C53.9643 59.0542 55.1585 57.8599 55.1585 56.3916C55.1585 54.9239 53.9643 53.7296 52.496 53.7296C51.0277 53.7296 49.8334 54.9239 49.8334 56.3905C49.8285 57.8539 51.0146 59.0487 52.4791 59.0542Z" fill="white"/>
</g>
</g>
</g>
<defs>
<filter id="filter0_i_321_6331" x="0.196777" y="-10.0526" width="104.606" height="115.067" filterUnits="userSpaceOnUse" color-interpolation-filters="sRGB">
<feFlood flood-opacity="0" result="BackgroundImageFix"/>
<feBlend mode="normal" in="SourceGraphic" in2="BackgroundImageFix" result="shape"/>
<feColorMatrix in="SourceAlpha" type="matrix" values="0 0 0 0 0 0 0 0 0 0 0 0 0 0 0 0 0 0 127 0" result="hardAlpha"/>
<feOffset dy="-10.4606"/>
<feGaussianBlur stdDeviation="8.7172"/>
<feComposite in2="hardAlpha" operator="arithmetic" k2="-1" k3="1"/>
<feColorMatrix type="matrix" values="0 0 0 0 0.0941176 0 0 0 0 0.101961 0 0 0 0 0.12549 0 0 0 0.2 0"/>
<feBlend mode="normal" in2="shape" result="effect1_innerShadow_321_6331"/>
</filter>
<filter id="filter1_d_321_6331" x="20.7317" y="31.4808" width="71.5364" height="71.5364" filterUnits="userSpaceOnUse" color-interpolation-filters="sRGB">
<feFlood flood-opacity="0" result="BackgroundImageFix"/>
<feColorMatrix in="SourceAlpha" type="matrix" values="0 0 0 0 0 0 0 0 0 0 0 0 0 0 0 0 0 0 127 0" result="hardAlpha"/>
<feOffset dx="4" dy="8"/>
<feGaussianBlur stdDeviation="12"/>
<feComposite in2="hardAlpha" operator="out"/>
<feColorMatrix type="matrix" values="0 0 0 0 0.498039 0 0 0 0 0.152941 0 0 0 0 1 0 0 0 0.25 0"/>
<feBlend mode="normal" in2="BackgroundImageFix" result="effect1_dropShadow_321_6331"/>
<feBlend mode="normal" in="SourceGraphic" in2="effect1_dropShadow_321_6331" result="shape"/>
</filter>
<clipPath id="clip0_321_6331">
<path d="M0.196777 52.7112C0.196777 23.825 23.6137 0.40802 52.5 0.40802C81.3863 0.40802 104.803 23.825 104.803 52.7112C104.803 81.5975 81.3863 105.014 52.5 105.014C23.6137 105.014 0.196777 81.5975 0.196777 52.7112Z" fill="white"/>
</clipPath>
</defs>
</svg>
