<svg width="34" height="35" viewBox="0 0 34 35" fill="none" xmlns="http://www.w3.org/2000/svg">
<path d="M3.29016 20.0039C3.83616 20.7879 4.80216 21.2359 5.90816 21.2359H11.6482C12.0262 21.2359 12.3762 21.3899 12.6142 21.6699C12.8662 21.9499 12.9642 22.3419 12.9082 22.7479L12.1942 27.3399C11.8862 28.7119 12.7962 30.2519 14.1682 30.7139C15.4422 31.1899 16.9402 30.5459 17.5422 29.6359L23.4502 20.8579L23.6182 20.5779V8.20189L23.4082 7.99188L18.9702 4.56189C18.3822 3.97389 17.0522 3.65189 16.1142 3.65189H10.6542C8.77816 3.65189 6.88817 5.06589 6.46817 6.78789L3.02416 17.2739C2.66016 18.2679 2.75817 19.2339 3.29016 20.0039Z" fill="#E3E5E6"/>
<path d="M26.3059 25.114H27.7479C29.9179 25.114 30.7999 24.274 30.7999 22.202V8.11801C30.7999 6.04601 29.9179 5.20601 27.7479 5.20601H26.3059C24.1359 5.20601 23.2539 6.04601 23.2539 8.11801V22.202C23.2539 24.274 24.1359 25.114 26.3059 25.114Z" fill="#E3E5E6"/>
</svg>
