<svg width="19" height="17" viewBox="0 0 19 17" fill="none" xmlns="http://www.w3.org/2000/svg">
<path fill-rule="evenodd" clip-rule="evenodd" d="M9.81407 10.2207C9.25657 10.2207 8.70073 10.0365 8.23573 9.66818L4.49823 6.65485C4.22907 6.43818 4.1874 6.04401 4.40323 5.77568C4.62073 5.50818 5.01407 5.46568 5.2824 5.68151L9.01657 8.69151C9.48573 9.06318 10.1466 9.06318 10.6191 8.68818L14.3157 5.68318C14.5841 5.46401 14.9774 5.50568 15.1957 5.77401C15.4132 6.04151 15.3724 6.43485 15.1049 6.65318L11.4016 9.66318C10.9332 10.0348 10.3732 10.2207 9.81407 10.2207Z" fill="#212121"/>
<mask id="mask0_54637_2350" style="mask-type:luminance" maskUnits="userSpaceOnUse" x="0" y="0" width="19" height="17">
<path fill-rule="evenodd" clip-rule="evenodd" d="M0.833374 0.666687H18.75V16.9167H0.833374V0.666687Z" fill="white"/>
</mask>
<g mask="url(#mask0_54637_2350)">
<path fill-rule="evenodd" clip-rule="evenodd" d="M5.69909 15.6667H13.8824C13.8841 15.665 13.8908 15.6667 13.8958 15.6667C14.8466 15.6667 15.6899 15.3267 16.3366 14.6809C17.0874 13.9334 17.4999 12.8592 17.4999 11.6567V5.93335C17.4999 3.60585 15.9783 1.91669 13.8824 1.91669H5.70075C3.60492 1.91669 2.08325 3.60585 2.08325 5.93335V11.6567C2.08325 12.8592 2.49659 13.9334 3.24659 14.6809C3.89325 15.3267 4.73742 15.6667 5.68742 15.6667H5.69909ZM5.68492 16.9167C4.39909 16.9167 3.25075 16.45 2.36409 15.5667C1.37659 14.5817 0.833252 13.1934 0.833252 11.6567V5.93335C0.833252 2.93085 2.92575 0.666687 5.70075 0.666687H13.8824C16.6574 0.666687 18.7499 2.93085 18.7499 5.93335V11.6567C18.7499 13.1934 18.2066 14.5817 17.2191 15.5667C16.3333 16.4492 15.1841 16.9167 13.8958 16.9167H13.8824H5.70075H5.68492Z" fill="#212121"/>
</g>
</svg>
