<svg width="16" height="21" viewBox="0 0 16 21" fill="none" xmlns="http://www.w3.org/2000/svg">
<path d="M1.89746 10.9001L3.11746 9.68007C3.40746 9.43007 3.57746 9.06007 3.58746 8.65007C3.60746 8.20007 3.42746 7.75007 3.09746 7.42007L1.89746 6.22007C0.857455 5.18007 0.467455 4.18007 0.797455 3.39007C1.11745 2.61007 2.10746 2.18007 3.56746 2.18007H14.0175V1.32007C14.0175 0.910068 14.3575 0.570068 14.7675 0.570068C15.1775 0.570068 15.5175 0.910068 15.5175 1.32007V19.8201C15.5175 20.2301 15.1775 20.5701 14.7675 20.5701C14.3575 20.5701 14.0175 20.2301 14.0175 19.8201V14.9401H3.56746C2.12745 14.9401 1.15746 14.5001 0.827456 13.7101C0.497456 12.9201 0.877455 11.9301 1.89746 10.9001Z" fill="white"/>
</svg>
