<svg width="25" height="25" viewBox="0 0 25 25" fill="none" xmlns="http://www.w3.org/2000/svg">
<g clip-path="url(#clip0_321_5778)">
<path d="M23.2826 13.4275C23.2826 12.5046 23.2077 11.8311 23.0456 11.1327H12.5071V15.2982H18.693C18.5683 16.3334 17.8948 17.8923 16.3982 18.9399L16.3772 19.0793L19.7093 21.6607L19.9402 21.6837C22.0603 19.7256 23.2826 16.8447 23.2826 13.4275Z" fill="#0074D9"/>
<path d="M12.507 24.4024C15.5375 24.4024 18.0817 23.4046 19.9401 21.6835L16.3981 18.9397C15.4503 19.6007 14.1781 20.0622 12.507 20.0622C9.53874 20.0622 7.01948 18.1042 6.12144 15.3978L5.98981 15.409L2.52505 18.0904L2.47974 18.2164C4.32552 21.883 8.11691 24.4024 12.507 24.4024Z" fill="#34A853"/>
<path d="M6.12142 15.3979C5.88447 14.6995 5.74733 13.9511 5.74733 13.1779C5.74733 12.4046 5.88447 11.6563 6.10896 10.9579L6.10268 10.8092L2.5945 8.08472L2.47972 8.13931C1.71898 9.66087 1.28247 11.3695 1.28247 13.1779C1.28247 14.9863 1.71898 16.6949 2.47972 18.2164L6.12142 15.3979Z" fill="#0074D9"/>
<path d="M12.507 6.2936C14.6147 6.2936 16.0364 7.20402 16.8471 7.96485L20.0149 4.87186C18.0694 3.06347 15.5375 1.95349 12.507 1.95349C8.11691 1.95349 4.32552 4.47275 2.47974 8.13938L6.10897 10.958C7.01949 8.25167 9.53874 6.2936 12.507 6.2936Z" fill="#EB4335"/>
</g>
<defs>
<clipPath id="clip0_321_5778">
<rect width="24" height="24" fill="white" transform="translate(0.282471 0.953491)"/>
</clipPath>
</defs>
</svg>
