<svg width="45" height="44" viewBox="0 0 45 44" fill="none" xmlns="http://www.w3.org/2000/svg">
<rect x="0.5" width="43.99" height="44" rx="21.995" fill="#F47D42" fill-opacity="0.1"/>
<path d="M26.69 12H18.31C14.67 12 12.5 14.17 12.5 17.81V26.18C12.5 29.83 14.67 32 18.31 32H26.68C30.32 32 32.49 29.83 32.49 26.19V17.81C32.5 14.17 30.33 12 26.69 12ZM28.17 19.22C27.98 19.59 27.54 19.74 27.16 19.56C25.93 18.94 24.6 18.6 23.25 18.5V26.29C23.25 26.7 22.91 27.04 22.5 27.04C22.09 27.04 21.75 26.7 21.75 26.29V18.5C20.4 18.6 19.07 18.94 17.84 19.56C17.73 19.61 17.61 19.63 17.5 19.63C17.23 19.63 16.96 19.48 16.83 19.22C16.64 18.85 16.79 18.4 17.16 18.21C20.5 16.54 24.49 16.54 27.83 18.21C28.21 18.4 28.36 18.85 28.17 19.22Z" fill="#F47D42"/>
</svg>
