<svg width="20" height="21" viewBox="0 0 20 21" fill="none" xmlns="http://www.w3.org/2000/svg">
<path d="M10 0.445801C4.49 0.445801 0 4.9358 0 10.4458C0 15.9558 4.49 20.4458 10 20.4458C15.51 20.4458 20 15.9558 20 10.4458C20 4.9358 15.51 0.445801 10 0.445801ZM14.78 8.1458L9.11 13.8158C8.97 13.9558 8.78 14.0358 8.58 14.0358C8.38 14.0358 8.19 13.9558 8.05 13.8158L5.22 10.9858C4.93 10.6958 4.93 10.2158 5.22 9.9258C5.51 9.6358 5.99 9.6358 6.28 9.9258L8.58 12.2258L13.72 7.0858C14.01 6.7958 14.49 6.7958 14.78 7.0858C15.07 7.3758 15.07 7.8458 14.78 8.1458Z" fill="#45C646"/>
</svg>
