<svg width="15" height="18" viewBox="0 0 15 18" fill="none" xmlns="http://www.w3.org/2000/svg">
<path fill-rule="evenodd" clip-rule="evenodd" d="M11.1024 7.50001C10.7574 7.50001 10.4774 7.22001 10.4774 6.87501V5.08584C10.4774 3.33918 9.05659 1.91834 7.30992 1.91834H7.29659C6.45242 1.91834 5.66159 2.24334 5.06409 2.83584C4.46242 3.43084 4.12992 4.22501 4.12659 5.07168V6.87501C4.12659 7.22001 3.84659 7.50001 3.50159 7.50001C3.15659 7.50001 2.87659 7.22001 2.87659 6.87501V5.08584C2.88159 3.88584 3.34575 2.77834 4.18325 1.94834C5.02159 1.11751 6.12825 0.636676 7.31242 0.668342C9.74575 0.668342 11.7274 2.65001 11.7274 5.08584V6.87501C11.7274 7.22001 11.4474 7.50001 11.1024 7.50001Z" fill="#212121"/>
<path fill-rule="evenodd" clip-rule="evenodd" d="M4.11837 7.44067C2.72004 7.44067 1.58337 8.57734 1.58337 9.97567V13.5498C1.58337 14.9482 2.72004 16.0848 4.11837 16.0848H10.4859C11.8834 16.0848 13.0209 14.9482 13.0209 13.5498V9.97567C13.0209 8.57734 11.8834 7.44067 10.4859 7.44067H4.11837ZM10.4859 17.3348H4.11837C2.03087 17.3348 0.333374 15.6373 0.333374 13.5498V9.97567C0.333374 7.88817 2.03087 6.19067 4.11837 6.19067H10.4859C12.5734 6.19067 14.2709 7.88817 14.2709 9.97567V13.5498C14.2709 15.6373 12.5734 17.3348 10.4859 17.3348Z" fill="#212121"/>
<path fill-rule="evenodd" clip-rule="evenodd" d="M7.302 13.313C6.957 13.313 6.677 13.033 6.677 12.688V10.8372C6.677 10.4922 6.957 10.2122 7.302 10.2122C7.647 10.2122 7.927 10.4922 7.927 10.8372V12.688C7.927 13.033 7.647 13.313 7.302 13.313Z" fill="#212121"/>
</svg>
