<svg width="34" height="35" viewBox="0 0 34 35" fill="none" xmlns="http://www.w3.org/2000/svg">
<path d="M30.7098 14.4881C30.1638 13.7041 29.1978 13.2561 28.0918 13.2561H22.3518C21.9738 13.2561 21.6238 13.1021 21.3858 12.8221C21.1338 12.5421 21.0358 12.1501 21.0918 11.7441L21.8058 7.15206C22.1138 5.78006 21.2038 4.24006 19.8318 3.77806C18.5578 3.30206 17.0598 3.94606 16.4578 4.85606L10.5498 13.6341L10.3818 13.9141V26.2901L10.5918 26.5001L15.0298 29.9301C15.6178 30.5181 16.9478 30.8401 17.8858 30.8401H23.3458C25.2218 30.8401 27.1118 29.4261 27.5318 27.7041L30.9758 17.2181C31.3398 16.2241 31.2418 15.2581 30.7098 14.4881Z" fill="#E3E5E6"/>
<path d="M7.69407 9.37793H6.25207C4.08207 9.37793 3.20007 10.2179 3.20007 12.2899V26.3739C3.20007 28.4459 4.08207 29.2859 6.25207 29.2859H7.69407C9.86407 29.2859 10.7461 28.4459 10.7461 26.3739V12.2899C10.7461 10.2179 9.86407 9.37793 7.69407 9.37793Z" fill="#E3E5E6"/>
</svg>
