<svg width="22" height="23" viewBox="0 0 22 23" fill="none" xmlns="http://www.w3.org/2000/svg">
<path d="M8.06224 15.5593L8.06211 15.5579C8.05036 15.4375 8.13831 15.3261 8.26696 15.3139L8.26906 15.3137C8.37766 15.3028 8.49963 15.3968 8.51203 15.5189C8.64671 16.9748 9.06663 18.0788 9.97678 18.7974C10.8707 19.5033 12.1496 19.7649 13.8238 19.7649H13.9397C15.785 19.7649 17.1676 19.4432 18.072 18.5388C18.9764 17.6344 19.2981 16.2517 19.2981 14.4065V8.59337C19.2981 6.74812 18.9764 5.36547 18.072 4.46107C17.1676 3.55667 15.785 3.23497 13.9397 3.23497H13.8238C12.1403 3.23497 10.8551 3.50105 9.96034 4.22046C9.0522 4.95063 8.63849 6.0705 8.51245 7.54717C8.49208 7.68972 8.37886 7.76795 8.26696 7.75729L8.26698 7.75717L8.25646 7.75642C8.1411 7.74818 8.04541 7.64502 8.05397 7.51349C8.19981 5.8128 8.72418 4.66168 9.61561 3.92388C10.5171 3.17774 11.8714 2.78917 13.8149 2.78917H13.9308C16.0684 2.78917 17.4882 3.24801 18.3822 4.14197C19.2762 5.03594 19.735 6.45582 19.735 8.59337V14.4065C19.735 16.544 19.2762 17.9639 18.3822 18.8579C17.4882 19.7519 16.0684 20.2107 13.9308 20.2107H13.8149C11.8842 20.2107 10.5376 19.8286 9.63779 19.0941C8.74792 18.3677 8.22036 17.2346 8.06224 15.5593Z" stroke="#FF3D00" stroke-width="0.891582"/>
<path d="M13.7167 12.1687H3.57054C3.20499 12.1687 2.90186 11.8655 2.90186 11.5C2.90186 11.1344 3.20499 10.8313 3.57054 10.8313H13.7167C14.0823 10.8313 14.3854 11.1344 14.3854 11.5C14.3854 11.8655 14.0823 12.1687 13.7167 12.1687Z" fill="#FF3D00"/>
<path d="M5.55877 15.1554C5.38937 15.1554 5.21997 15.093 5.08624 14.9593L2.09944 11.9725C1.84088 11.7139 1.84088 11.286 2.09944 11.0274L5.08624 8.0406C5.34479 7.78204 5.77275 7.78204 6.03131 8.0406C6.28987 8.29916 6.28987 8.72712 6.03131 8.98568L3.51705 11.4999L6.03131 14.0142C6.28987 14.2728 6.28987 14.7007 6.03131 14.9593C5.90649 15.093 5.72817 15.1554 5.55877 15.1554Z" fill="#FF3D00"/>
</svg>
