<svg width="20" height="18" viewBox="0 0 20 18" fill="none" xmlns="http://www.w3.org/2000/svg">
<path d="M2.00137 17.9496H17.0614C18.6014 17.9496 19.5614 16.2796 18.7914 14.9496L11.2614 1.93964C10.4914 0.609639 8.57137 0.609639 7.80137 1.93964L0.271371 14.9496C-0.498629 16.2796 0.461371 17.9496 2.00137 17.9496ZM9.53137 10.9496C8.98137 10.9496 8.53137 10.4996 8.53137 9.94964V7.94964C8.53137 7.39964 8.98137 6.94964 9.53137 6.94964C10.0814 6.94964 10.5314 7.39964 10.5314 7.94964V9.94964C10.5314 10.4996 10.0814 10.9496 9.53137 10.9496ZM10.5314 14.9496H8.53137V12.9496H10.5314V14.9496Z" fill="#FABB18"/>
</svg>
