<svg width="13" height="17" viewBox="0 0 13 17" fill="none" xmlns="http://www.w3.org/2000/svg">
<path fill-rule="evenodd" clip-rule="evenodd" d="M3.98687 3.14902C3.98687 1.93221 4.97328 0.945801 6.19008 0.945801H7.79242C9.00922 0.945801 9.99563 1.93221 9.99563 3.14902V4.75135C9.99563 5.08321 9.72661 5.35223 9.39476 5.35223H4.58774C4.25589 5.35223 3.98687 5.08321 3.98687 4.75135V3.14902ZM6.19008 2.14755C5.63699 2.14755 5.18862 2.59592 5.18862 3.14902V4.15048H8.79388V3.14902C8.79388 2.59592 8.34551 2.14755 7.79242 2.14755H6.19008Z" fill="#45C646"/>
<path fill-rule="evenodd" clip-rule="evenodd" d="M2.57435 3.09195C2.67563 3.04339 2.78809 3.12068 2.78788 3.233L2.78511 4.75136C2.78511 5.74692 3.59218 6.55399 4.58774 6.55399H9.39476C10.3903 6.55399 11.1974 5.74692 11.1974 4.75136V3.23254C11.1974 3.12035 11.3098 3.04326 11.4109 3.09177C12.3604 3.54695 13 4.51644 13 5.62099V14.0248C13 15.3954 11.9791 16.5514 10.619 16.7208C8.20979 17.0208 5.7727 17.0208 3.36353 16.7208C2.00342 16.5514 0.982483 15.3954 0.982483 14.0248V5.62099C0.982483 4.51658 1.62471 3.54721 2.57435 3.09195ZM9.39476 8.7572C9.72661 8.7572 9.99563 9.02622 9.99563 9.35807C9.99563 9.68993 9.72661 9.95895 9.39476 9.95895H4.58774C4.25589 9.95895 3.98687 9.68993 3.98687 9.35807C3.98687 9.02622 4.25589 8.7572 4.58774 8.7572H9.39476ZM8.59359 11.1607C8.92544 11.1607 9.19446 11.4297 9.19446 11.7616C9.19446 12.0934 8.92544 12.3625 8.59359 12.3625H4.58774C4.25589 12.3625 3.98687 12.0934 3.98687 11.7616C3.98687 11.4297 4.25589 11.1607 4.58774 11.1607H8.59359Z" fill="#45C646"/>
</svg>
