<svg width="14" height="13" viewBox="0 0 14 13" fill="none" xmlns="http://www.w3.org/2000/svg">
<path fill-rule="evenodd" clip-rule="evenodd" d="M5.53478 8.70689C5.40715 8.70689 5.27952 8.65837 5.18247 8.56065C4.6919 8.07075 4.42136 7.41931 4.42136 6.72667C4.42136 5.29085 5.58862 4.12292 7.0231 4.12292C7.71309 4.12292 8.38314 4.40145 8.86108 4.88736C9.05385 5.08412 9.05186 5.3992 8.8551 5.59198C8.659 5.78608 8.34392 5.78275 8.15048 5.58732C7.85867 5.29019 7.44787 5.12002 7.0231 5.12002C6.13835 5.12002 5.41845 5.84058 5.41845 6.72667C5.41845 7.15276 5.5853 7.55425 5.88708 7.85604C6.08185 8.05081 6.08185 8.36589 5.88775 8.56065C5.79003 8.65837 5.6624 8.70689 5.53478 8.70689Z" fill="#150A3D"/>
<path fill-rule="evenodd" clip-rule="evenodd" d="M7.40024 9.28786C7.16426 9.28786 6.95421 9.11902 6.91034 8.87839C6.86115 8.60784 7.04062 8.34793 7.31183 8.29874C7.96327 8.18042 8.4791 7.66326 8.59609 7.01117C8.64528 6.74062 8.90452 6.56247 9.17507 6.60901C9.44628 6.65753 9.62642 6.91677 9.57789 7.18798C9.38712 8.2469 8.54823 9.08711 7.48998 9.27988C7.46007 9.2852 7.42949 9.28786 7.40024 9.28786Z" fill="#150A3D"/>
<mask id="mask0_54660_338" style="mask-type:luminance" maskUnits="userSpaceOnUse" x="0" y="1" width="12" height="10">
<path fill-rule="evenodd" clip-rule="evenodd" d="M0.375824 1.39954H11.0688V10.771H0.375824V1.39954Z" fill="white"/>
</mask>
<g mask="url(#mask0_54660_338)">
<path fill-rule="evenodd" clip-rule="evenodd" d="M3.46962 10.771C3.36193 10.771 3.25358 10.7357 3.16185 10.6646C2.0378 9.78185 1.0879 8.48762 0.416522 6.92285C0.362014 6.79655 0.362014 6.6543 0.416522 6.52867C1.09521 4.95725 2.05109 3.65637 3.18113 2.76763C5.48508 0.944282 8.55214 0.938299 10.8794 2.78093C11.0954 2.95176 11.1319 3.26551 10.9611 3.48155C10.7896 3.69626 10.4772 3.73415 10.2605 3.56265C8.2889 2.00186 5.74898 2.00718 3.79866 3.55068C2.84411 4.30183 2.0245 5.39597 1.4196 6.72676C2.01852 8.04957 2.83082 9.13706 3.77805 9.88023C3.99476 10.0504 4.03198 10.3642 3.86181 10.5802C3.76343 10.7052 3.61719 10.771 3.46962 10.771Z" fill="#150A3D"/>
</g>
<mask id="mask1_54660_338" style="mask-type:luminance" maskUnits="userSpaceOnUse" x="4" y="4" width="10" height="9">
<path fill-rule="evenodd" clip-rule="evenodd" d="M4.84113 4.13617H13.6704V12.0785H4.84113V4.13617Z" fill="white"/>
</mask>
<g mask="url(#mask1_54660_338)">
<path fill-rule="evenodd" clip-rule="evenodd" d="M7.02319 12.0785C6.40033 12.0785 5.78081 11.9774 5.18255 11.7787C4.92131 11.6916 4.77973 11.4091 4.86681 11.1479C4.95388 10.886 5.23507 10.747 5.49763 10.8321C5.99419 10.9976 6.50736 11.0814 7.02319 11.0814C9.30188 11.0814 11.3845 9.45812 12.6268 6.72542C12.3237 6.06136 11.9708 5.45978 11.5759 4.93464C11.4104 4.71462 11.4543 4.40153 11.6743 4.23601C11.8937 4.0705 12.2067 4.1157 12.3723 4.33506C12.8535 4.97386 13.2763 5.71238 13.6293 6.52733C13.6844 6.65363 13.6844 6.79721 13.6293 6.92285C12.236 10.1514 9.76652 12.0785 7.02319 12.0785Z" fill="#150A3D"/>
</g>
</svg>
