<svg width="14" height="13" viewBox="0 0 14 13" fill="none" xmlns="http://www.w3.org/2000/svg">
<path fill-rule="evenodd" clip-rule="evenodd" d="M5.53481 8.4045C5.40718 8.4045 5.27955 8.35597 5.1825 8.25826C4.69193 7.76835 4.42139 7.11692 4.42139 6.42427C4.42139 4.98845 5.58865 3.82053 7.02314 3.82053C7.71312 3.82053 8.38317 4.09905 8.86111 4.58496C9.05388 4.78172 9.05189 5.09681 8.85513 5.28958C8.65903 5.48368 8.34395 5.48035 8.15052 5.28492C7.8587 4.98779 7.4479 4.81762 7.02314 4.81762C6.13838 4.81762 5.41848 5.53819 5.41848 6.42427C5.41848 6.85036 5.58533 7.25186 5.88711 7.55364C6.08188 7.74841 6.08188 8.06349 5.88778 8.25826C5.79006 8.35597 5.66244 8.4045 5.53481 8.4045Z" fill="#212121"/>
<path fill-rule="evenodd" clip-rule="evenodd" d="M7.40024 8.98549C7.16426 8.98549 6.95421 8.81665 6.91034 8.57602C6.86115 8.30548 7.04062 8.04557 7.31183 7.99638C7.96327 7.87805 8.4791 7.3609 8.59609 6.7088C8.64528 6.43825 8.90452 6.26011 9.17507 6.30664C9.44628 6.35516 9.62642 6.61441 9.57789 6.88562C9.38712 7.94453 8.54823 8.78474 7.48998 8.97752C7.46007 8.98283 7.42949 8.98549 7.40024 8.98549Z" fill="#212121"/>
<mask id="mask0_54660_1318" style="mask-type:luminance" maskUnits="userSpaceOnUse" x="0" y="1" width="12" height="10">
<path fill-rule="evenodd" clip-rule="evenodd" d="M0.375854 1.09711H11.0688V10.4685H0.375854V1.09711Z" fill="white"/>
</mask>
<g mask="url(#mask0_54660_1318)">
<path fill-rule="evenodd" clip-rule="evenodd" d="M3.46959 10.4685C3.3619 10.4685 3.25355 10.4333 3.16182 10.3622C2.03776 9.47942 1.08787 8.18519 0.416491 6.62042C0.361983 6.49412 0.361983 6.35187 0.416491 6.22624C1.09518 4.65482 2.05106 3.35395 3.1811 2.4652C5.48505 0.641852 8.55211 0.63587 10.8793 2.4785C11.0954 2.64933 11.1319 2.96308 10.9611 3.17912C10.7896 3.39383 10.4772 3.43172 10.2605 3.26022C8.28887 1.69944 5.74894 1.70475 3.79863 3.24825C2.84408 3.9994 2.02447 5.09354 1.41957 6.42433C2.01849 7.74714 2.83079 8.83463 3.77802 9.5778C3.99473 9.74797 4.03195 10.0617 3.86178 10.2778C3.7634 10.4027 3.61716 10.4685 3.46959 10.4685Z" fill="#212121"/>
</g>
<mask id="mask1_54660_1318" style="mask-type:luminance" maskUnits="userSpaceOnUse" x="4" y="3" width="10" height="9">
<path fill-rule="evenodd" clip-rule="evenodd" d="M4.84119 3.83377H13.6705V11.7761H4.84119V3.83377Z" fill="white"/>
</mask>
<g mask="url(#mask1_54660_1318)">
<path fill-rule="evenodd" clip-rule="evenodd" d="M7.02325 11.7761C6.4004 11.7761 5.78087 11.675 5.18261 11.4763C4.92137 11.3892 4.77979 11.1067 4.86687 10.8455C4.95395 10.5836 5.23513 10.4446 5.49769 10.5297C5.99425 10.6952 6.50742 10.779 7.02325 10.779C9.30194 10.779 11.3845 9.15573 12.6269 6.42303C12.3238 5.75896 11.9708 5.15738 11.576 4.63225C11.4105 4.41222 11.4543 4.09913 11.6744 3.93362C11.8937 3.7681 12.2068 3.8133 12.3723 4.03266C12.8536 4.67147 13.2764 5.40998 13.6293 6.22494C13.6845 6.35123 13.6845 6.49482 13.6293 6.62045C12.236 9.84904 9.76658 11.7761 7.02325 11.7761Z" fill="#212121"/>
</g>
<mask id="mask2_54660_1318" style="mask-type:luminance" maskUnits="userSpaceOnUse" x="1" y="0" width="12" height="13">
<path fill-rule="evenodd" clip-rule="evenodd" d="M1.28223 0.682343H12.7644V12.1642H1.28223V0.682343Z" fill="white"/>
</mask>
<g mask="url(#mask2_54660_1318)">
<path fill-rule="evenodd" clip-rule="evenodd" d="M1.78061 12.1643C1.65298 12.1643 1.52535 12.1158 1.4283 12.0181C1.23354 11.8233 1.23354 11.5082 1.4283 11.3134L11.9137 0.82802C12.1085 0.633254 12.4236 0.633254 12.6183 0.82802C12.8131 1.02279 12.8131 1.33853 12.6183 1.5333L2.13291 12.0181C2.03586 12.1158 1.90823 12.1643 1.78061 12.1643Z" fill="#212121"/>
</g>
</svg>
