<svg width="40" height="40" viewBox="0 0 40 40" fill="none" xmlns="http://www.w3.org/2000/svg">
<rect width="40" height="40" rx="20" fill="white"/>
<path d="M23.2214 25.0257H15.7797C15.4472 25.0257 15.0751 24.7644 14.9643 24.4477L11.6868 15.2802C11.2197 13.9661 11.7659 13.5623 12.8901 14.3698L15.9776 16.5786C16.4922 16.9348 17.078 16.7527 17.2997 16.1748L18.693 12.4619C19.1364 11.2744 19.8726 11.2744 20.3159 12.4619L21.7093 16.1748C21.9309 16.7527 22.5168 16.9348 23.0234 16.5786L25.9209 14.5123C27.1559 13.6257 27.7497 14.0769 27.243 15.5098L24.0447 24.4636C23.9259 24.7644 23.5539 25.0257 23.2214 25.0257Z" stroke="black" stroke-width="1.5" stroke-linecap="round" stroke-linejoin="round"/>
<path d="M15.1455 27.4165H23.8538" stroke="black" stroke-width="1.5" stroke-linecap="round" stroke-linejoin="round"/>
<path d="M17.5205 21.0835H21.4788" stroke="black" stroke-width="1.5" stroke-linecap="round" stroke-linejoin="round"/>
</svg>
