<svg width="31" height="32" viewBox="0 0 31 32" fill="none" xmlns="http://www.w3.org/2000/svg">
<rect x="0.23999" y="0.619995" width="30.7601" height="30.7601" rx="15.38" fill="white"/>
<path d="M11.8917 21.0159L19.0828 13.8248L19.0828 20.1082C19.0828 20.6103 19.4949 21.0224 19.997 21.0224C20.4992 21.0224 20.9048 20.6168 20.9048 20.1146L20.9048 11.6294C20.9048 11.1273 20.4992 10.7217 19.997 10.7217L11.5118 10.7088C11.0097 10.7088 10.6041 11.1144 10.6041 11.6165C10.6041 12.1187 11.0097 12.5243 11.5118 12.5243L17.7953 12.5372L10.6041 19.7283C10.25 20.0824 10.25 20.6618 10.6041 21.0159C10.9582 21.37 11.5376 21.37 11.8917 21.0159Z" fill="black"/>
</svg>
