<svg width="40" height="40" viewBox="0 0 40 40" fill="none" xmlns="http://www.w3.org/2000/svg">
<rect width="40" height="40" rx="20" fill="#CE4AEF"/>
<path d="M24.1666 19.1666H15.8333C14.9128 19.1666 14.1666 19.9128 14.1666 20.8333V25.8333C14.1666 26.7538 14.9128 27.5 15.8333 27.5H24.1666C25.0871 27.5 25.8333 26.7538 25.8333 25.8333V20.8333C25.8333 19.9128 25.0871 19.1666 24.1666 19.1666Z" stroke="white" stroke-width="1.25" stroke-linecap="round" stroke-linejoin="round"/>
<path d="M20 24.1667C20.4602 24.1667 20.8333 23.7936 20.8333 23.3333C20.8333 22.8731 20.4602 22.5 20 22.5C19.5397 22.5 19.1666 22.8731 19.1666 23.3333C19.1666 23.7936 19.5397 24.1667 20 24.1667Z" stroke="white" stroke-width="1.66667" stroke-linecap="round" stroke-linejoin="round"/>
<path d="M16.6666 19.1667V15.8333C16.6666 14.9493 17.0178 14.1014 17.6429 13.4763C18.2681 12.8512 19.1159 12.5 20 12.5C20.884 12.5 21.7319 12.8512 22.357 13.4763C22.9821 14.1014 23.3333 14.9493 23.3333 15.8333V19.1667" stroke="white" stroke-width="1.25" stroke-linecap="round" stroke-linejoin="round"/>
</svg>
