<svg width="101" height="202" viewBox="0 0 101 202" fill="none" xmlns="http://www.w3.org/2000/svg">
<path opacity="0.1" fill-rule="evenodd" clip-rule="evenodd" d="M99.4375 157.25C131.366 157.25 157.25 131.366 157.25 99.4375C157.25 67.5085 131.366 41.625 99.4375 41.625C67.5085 41.625 41.625 67.5085 41.625 99.4375C41.625 131.366 67.5085 157.25 99.4375 157.25Z" fill="white"/>
<path opacity="0.2" fill-rule="evenodd" clip-rule="evenodd" d="M101 201C156.228 201 201 156.228 201 101C201 45.7715 156.228 1 101 1C45.7715 1 1 45.7715 1 101C1 156.228 45.7715 201 101 201Z" stroke="white"/>
<path fill-rule="evenodd" clip-rule="evenodd" d="M45 191C50.5228 191 55 186.523 55 181C55 175.477 50.5228 171 45 171C39.4772 171 35 175.477 35 181C35 186.523 39.4772 191 45 191Z" fill="#601FBE"/>
</svg>
