<svg width="44" height="44" viewBox="0 0 44 44" fill="none" xmlns="http://www.w3.org/2000/svg">
<rect width="44" height="44" rx="22" fill="#CE4AEF"/>
<path d="M22 25.75C19.93 25.75 18.25 24.07 18.25 22C18.25 19.93 19.93 18.25 22 18.25C24.07 18.25 25.75 19.93 25.75 22C25.75 24.07 24.07 25.75 22 25.75ZM22 19.75C20.76 19.75 19.75 20.76 19.75 22C19.75 23.24 20.76 24.25 22 24.25C23.24 24.25 24.25 23.24 24.25 22C24.25 20.76 23.24 19.75 22 19.75Z" fill="white"/>
<path d="M25.21 32.19C25 32.19 24.79 32.16 24.58 32.11C23.96 31.94 23.44 31.55 23.11 31L22.99 30.8C22.4 29.78 21.59 29.78 21 30.8L20.89 30.99C20.56 31.55 20.04 31.95 19.42 32.11C18.79 32.28 18.14 32.19 17.59 31.86L15.87 30.87C15.26 30.52 14.82 29.95 14.63 29.26C14.45 28.57 14.54 27.86 14.89 27.25C15.18 26.74 15.26 26.28 15.09 25.99C14.92 25.7 14.49 25.53 13.9 25.53C12.44 25.53 11.25 24.34 11.25 22.88V21.12C11.25 19.66 12.44 18.47 13.9 18.47C14.49 18.47 14.92 18.3 15.09 18.01C15.26 17.72 15.19 17.26 14.89 16.75C14.54 16.14 14.45 15.42 14.63 14.74C14.81 14.05 15.25 13.48 15.87 13.13L17.6 12.14C18.73 11.47 20.22 11.86 20.9 13.01L21.02 13.21C21.61 14.23 22.42 14.23 23.01 13.21L23.12 13.02C23.8 11.86 25.29 11.47 26.43 12.15L28.15 13.14C28.76 13.49 29.2 14.06 29.39 14.75C29.57 15.44 29.48 16.15 29.13 16.76C28.84 17.27 28.76 17.73 28.93 18.02C29.1 18.31 29.53 18.48 30.12 18.48C31.58 18.48 32.77 19.67 32.77 21.13V22.89C32.77 24.35 31.58 25.54 30.12 25.54C29.53 25.54 29.1 25.71 28.93 26C28.76 26.29 28.83 26.75 29.13 27.26C29.48 27.87 29.58 28.59 29.39 29.27C29.21 29.96 28.77 30.53 28.15 30.88L26.42 31.87C26.04 32.08 25.63 32.19 25.21 32.19ZM22 28.49C22.89 28.49 23.72 29.05 24.29 30.04L24.4 30.23C24.52 30.44 24.72 30.59 24.96 30.65C25.2 30.71 25.44 30.68 25.64 30.56L27.37 29.56C27.63 29.41 27.83 29.16 27.91 28.86C27.99 28.56 27.95 28.25 27.8 27.99C27.23 27.01 27.16 26 27.6 25.23C28.04 24.46 28.95 24.02 30.09 24.02C30.73 24.02 31.24 23.51 31.24 22.87V21.11C31.24 20.48 30.73 19.96 30.09 19.96C28.95 19.96 28.04 19.52 27.6 18.75C27.16 17.98 27.23 16.97 27.8 15.99C27.95 15.73 27.99 15.42 27.91 15.12C27.83 14.82 27.64 14.58 27.38 14.42L25.65 13.43C25.22 13.17 24.65 13.32 24.39 13.76L24.28 13.95C23.71 14.94 22.88 15.5 21.99 15.5C21.1 15.5 20.27 14.94 19.7 13.95L19.59 13.75C19.34 13.33 18.78 13.18 18.35 13.43L16.62 14.43C16.36 14.58 16.16 14.83 16.08 15.13C16 15.43 16.04 15.74 16.19 16C16.76 16.98 16.83 17.99 16.39 18.76C15.95 19.53 15.04 19.97 13.9 19.97C13.26 19.97 12.75 20.48 12.75 21.12V22.88C12.75 23.51 13.26 24.03 13.9 24.03C15.04 24.03 15.95 24.47 16.39 25.24C16.83 26.01 16.76 27.02 16.19 28C16.04 28.26 16 28.57 16.08 28.87C16.16 29.17 16.35 29.41 16.61 29.57L18.34 30.56C18.55 30.69 18.8 30.72 19.03 30.66C19.27 30.6 19.47 30.44 19.6 30.23L19.71 30.04C20.28 29.06 21.11 28.49 22 28.49Z" fill="white"/>
</svg>
