<svg width="17" height="17" viewBox="0 0 17 17" fill="none" xmlns="http://www.w3.org/2000/svg">
<path d="M12.2472 0.945801H5.5432C2.6312 0.945801 0.895203 2.6818 0.895203 5.5938V12.2898C0.895203 15.2098 2.6312 16.9458 5.5432 16.9458H12.2392C15.1512 16.9458 16.8872 15.2098 16.8872 12.2978V5.5938C16.8952 2.6818 15.1592 0.945801 12.2472 0.945801ZM13.4312 6.7218C13.2792 7.0178 12.9272 7.1378 12.6232 6.9938C11.6392 6.4978 10.5752 6.2258 9.4952 6.1458V12.3778C9.4952 12.7058 9.2232 12.9778 8.8952 12.9778C8.5672 12.9778 8.2952 12.7058 8.2952 12.3778V6.1458C7.2152 6.2258 6.1512 6.4978 5.1672 6.9938C5.0792 7.0338 4.9832 7.0498 4.8952 7.0498C4.6792 7.0498 4.4632 6.9298 4.3592 6.7218C4.2072 6.4258 4.3272 6.0658 4.6232 5.9138C7.2952 4.5778 10.4872 4.5778 13.1592 5.9138C13.4632 6.0658 13.5832 6.4258 13.4312 6.7218Z" fill="#F47D42"/>
</svg>
