<svg width="17" height="17" viewBox="0 0 17 17" fill="none" xmlns="http://www.w3.org/2000/svg">
<path d="M15.2873 7.4978H12.9753C11.0793 7.4978 9.53527 5.9538 9.53527 4.0578V1.7458C9.53527 1.3058 9.17527 0.945801 8.73527 0.945801H5.34327C2.87927 0.945801 0.887268 2.5458 0.887268 5.4018V12.4898C0.887268 15.3458 2.87927 16.9458 5.34327 16.9458H11.6313C14.0953 16.9458 16.0873 15.3458 16.0873 12.4898V8.2978C16.0873 7.8578 15.7273 7.4978 15.2873 7.4978ZM8.11127 10.1698C7.99127 10.2898 7.83927 10.3458 7.68727 10.3458C7.53527 10.3458 7.38327 10.2898 7.26327 10.1698L6.68727 9.5938V12.9458C6.68727 13.2738 6.41527 13.5458 6.08727 13.5458C5.75927 13.5458 5.48727 13.2738 5.48727 12.9458V9.5938L4.91127 10.1698C4.67927 10.4018 4.29527 10.4018 4.06327 10.1698C3.83127 9.9378 3.83127 9.5538 4.06327 9.3218L5.66327 7.7218C5.71927 7.6738 5.77527 7.6338 5.83927 7.6018C5.85527 7.5938 5.87927 7.5858 5.89527 7.5778C5.94327 7.5618 5.99127 7.5538 6.04727 7.5458C6.07127 7.5458 6.08727 7.5458 6.11127 7.5458C6.17527 7.5458 6.23927 7.5618 6.30327 7.5858C6.31127 7.5858 6.31127 7.5858 6.31927 7.5858C6.38327 7.6098 6.44727 7.6578 6.49527 7.7058C6.50327 7.7138 6.51127 7.7138 6.51127 7.7218L8.11127 9.3218C8.34327 9.5538 8.34327 9.9378 8.11127 10.1698Z" fill="#601FBE"/>
<path d="M12.8313 6.39389C13.5913 6.40189 14.6473 6.40189 15.5513 6.40189C16.0073 6.40189 16.2473 5.86589 15.9273 5.54589C14.7753 4.38589 12.7113 2.29789 11.5273 1.11389C11.1993 0.785893 10.6313 1.00989 10.6313 1.46589V4.25789C10.6313 5.42589 11.6233 6.39389 12.8313 6.39389Z" fill="#601FBE"/>
</svg>
